<svg width="93" height="20" viewBox="0 0 93 20" fill="none" xmlns="http://www.w3.org/2000/svg">
<path d="M11.7589 1.22514V11.5419C11.7828 12.1367 11.6692 12.729 11.4271 13.2724C11.2348 13.6987 10.9516 14.0774 10.5974 14.3818C10.2896 14.6293 9.93633 14.814 9.55764 14.9253C8.89595 15.1391 8.184 15.1391 7.52231 14.9253C7.12213 14.8172 6.74654 14.6327 6.41615 14.3818C6.05874 14.0778 5.77183 13.6992 5.57546 13.2724C5.34294 12.7263 5.23341 12.1354 5.25468 11.5419V0.00488281H0.000413445V11.5419C-0.0106251 12.7279 0.199465 13.9055 0.619864 15.0141C1.00606 16.0113 1.59355 16.9177 2.34547 17.6765C3.11709 18.4277 4.03629 19.0095 5.04451 19.3848C6.16345 19.7957 7.34861 19.995 8.53998 19.9728C9.73203 19.9914 10.9172 19.7883 12.0354 19.3737C13.0437 18.9984 13.9629 18.4166 14.7345 17.6654C15.4878 16.9099 16.0723 16.0024 16.449 15.003C16.8605 13.8923 17.0667 12.7156 17.0574 11.5308V1.22514V0.00488281H11.7589V1.22514Z" fill="#111111"/>
<path d="M36.1146 0.00512695H35.9929L30.4621 8.77991C30.4621 8.77991 24.7543 0.00512695 24.7211 0.00512695H19.312V19.973H24.7211V9.55643L30.4289 17.6434L35.9597 9.55643V19.973H41.3799V18.7528V1.22539V0.00512695H36.1146Z" fill="#111111"/>
<path d="M43.6601 1.22539V10.1998V18.7639V19.3185V19.9841H44.2906H48.306H48.9475V19.3407V10.1998L48.9586 1.22539V0.00512695H43.6601V1.22539Z" fill="#111111"/>
<path d="M91.2043 6.11735C90.7002 4.93333 89.9756 3.85655 89.0694 2.94468C88.1585 2.03499 87.0854 1.30496 85.9058 0.792583C84.6816 0.269587 83.3648 0 82.0342 0C80.7036 0 79.3868 0.269587 78.1626 0.792583C76.9818 1.29677 75.9108 2.02788 75.0101 2.94468C74.1153 3.86131 73.3988 4.93727 72.8973 6.11735C72.3758 7.34498 72.107 8.66561 72.107 10C72.107 11.3344 72.3758 12.655 72.8973 13.8826C73.4054 15.0645 74.1295 16.1406 75.0322 17.0553C75.933 17.9721 77.0039 18.7032 78.1848 19.2074C79.4089 19.7304 80.7257 20 82.0563 20C83.3869 20 84.7038 19.7304 85.9279 19.2074C87.1075 18.695 88.1806 17.965 89.0915 17.0553C89.9977 16.1434 90.7223 15.0667 91.2264 13.8826C91.7555 12.6541 92.0194 11.3271 92.0007 9.98891C92.008 8.65675 91.7367 7.33785 91.2043 6.11735ZM86.4257 11.8859C86.1861 12.4726 85.8412 13.0103 85.408 13.4722C84.972 13.9335 84.4544 14.3097 83.8815 14.5815C83.3082 14.8557 82.6804 14.996 82.0453 14.992C81.4066 14.9962 80.7751 14.8559 80.198 14.5815C79.6301 14.3121 79.1193 13.9355 78.6936 13.4722C78.264 13.0097 77.9228 12.472 77.687 11.8859C77.4341 11.2858 77.3061 10.6403 77.3109 9.98891C77.3221 8.70203 77.8157 7.46649 78.6936 6.52781C79.1218 6.06736 79.632 5.69114 80.198 5.41848C80.7751 5.14412 81.4066 5.00382 82.0453 5.00803C82.6804 5.00396 83.3082 5.14429 83.8815 5.41848C84.4525 5.69357 84.9695 6.06931 85.408 6.52781C85.8456 6.98192 86.1912 7.51689 86.4257 8.10305C86.6701 8.70177 86.7978 9.34195 86.8018 9.98891C86.8009 10.6398 86.6731 11.2842 86.4257 11.8859Z" fill="#111111"/>
<path d="M65.2646 0.00512695H64.5898V0.681817V1.22539V5.28553H69.8552V1.22539V0.681817V0.00512695H69.2468H65.2646Z" fill="#111111"/>
<path d="M56.6247 0.00512695H55.9499H51.8903H51.8792H51.2045V0.681817V1.22539V5.28553V18.7639V19.3074V19.9841H51.8903H55.9499H56.6247V19.3074V18.7639V8.41383L64.589 19.9841H69.1796H69.8543V19.3074V18.7639V17.8098L60.2639 5.28553L56.6247 0.00512695Z" fill="#111111"/>
</svg>
